<?xml version="1.0" standalone="no"?><!DOCTYPE svg PUBLIC "-//W3C//DTD SVG 1.1//EN" "http://www.w3.org/Graphics/SVG/1.1/DTD/svg11.dtd"><svg class="icon" width="200px" height="200.00px" viewBox="0 0 1024 1024" version="1.1" xmlns="http://www.w3.org/2000/svg"><path fill="#515151" d="M835.5 370.3L946 490.6l14.1-23.6-89.4-139.1-28.1-25.9c10.3-27.2-18.8-40.1-18.8-40.1l-7.1-21.2v-33l-80-143.8-18.8 21.2 56.4 146.1 28.2 35.4s-17.2 9.7-16.5 16.5c0.8 6.8-18.8 14.1-18.8 14.1l-11.8-9.4-35.3 16.5 2.4 14.1L593.6 383l-9.9-107h-14.1l-14.1-25.9h-87.1L454.3 276h-14.1l-9.9 107-128.9-64.6 2.4-14.1-35.3-16.5-11.8 9.4s-19.6-7.4-18.8-14.1c0.8-6.8-16.5-16.5-16.5-16.5l28.2-35.4L306 85.1l-18.8-21.2-80 143.8v33l-7.1 21.2S171 274.7 181.3 302l-28.2 25.9-89 139.1 14.1 23.6 110.5-120.2V335s-0.5-8 4.7-11.8c5.2-3.8 6.3 13.4 30.6 0 9.7-5.4 17.6-3.4 21.2 0l-2.4 9.4 37.6 18.9 14.1-11.8s107.1 58.7 115.2 63.6c4.4 2.7 11.8 8.2 17.6 13.3l-1.2 12.6 25.9 23.6 2.4 28.3h-7.1v46h7.1l2.4 97.8h-23.5l-11.8 21.2-101.1 75.4-16.5-2.4-25.9 16.5-2.4 16.5-32.9 7.1-9.4-14.1v-25.9L118.2 603.7l-11.8 23.6 89.4 124.9 32.9 25.9s-7.9 30.7 23.5 33c0 0 13.7 16.3 18.8 16.5l4.7 25.9L398 959.6l9.4-25.9s-83.6-91-91.7-101.4c-8.1-10.4-35.2-23.9-37.6-23.6-2.4 0.4 11.8-11.8 11.8-11.8V771l14.1 2.4 28.2-28.3v-9.4l94.1-70.7 28.2 16.5s6.9 20.6 28.1 20.6l0.1-25.3h4.7l2.4 18.9h44.7l2.4-18.9h4.7v25.1c21.2 0 28.3-20.4 28.3-20.4L598 665l94.1 70.7v9.4l28.2 28.3 14.1-2.4v26s14.2 12.2 11.8 11.8c-2.4-0.4-29.5 13.2-37.6 23.6-8.1 10.4-91.7 101.4-91.7 101.4l9.4 25.9 122.3-106.1 4.7-25.9c5.1-0.2 18.8-16.5 18.8-16.5 31.4-2.3 23.5-33 23.5-33l32.9-25.9 89.4-124.9-11.8-23.6-115.3 115.4v25.9l-9.4 14.1-32.9-7.1-2.4-16.5-25.9-16.5-16.5 2.4-101.1-75.4-11.8-21.2h-23.5l2.4-97.8h7.1v-46h-7.1l2.4-28.3 25.9-23.6-1.2-12.6c5.8-5.1 13.2-10.6 17.6-13.3 8.1-5 115.2-63.6 115.2-63.6l14.1 11.8 37.6-18.9-2.4-9.4c3.5-3.4 11.4-5.4 21.2 0 24.3 13.4 25.3-3.8 30.6 0 5.2 3.8 4.7 11.8 4.7 11.8v35.3zM513.3 483.5c-9.1 0-16.5-7.4-16.5-16.5s7.4-16.5 16.5-16.5 16.5 7.4 16.5 16.5-7.4 16.5-16.5 16.5z" /></svg>